# AST/ASF file generated using VICON BodyLanguage
# -----------------------------------------------
:version 1.10
:name VICON
:units
  mass 1.0
  length 0.45
  angle deg
:documentation
   .ast/.asf automatically generated from VICON data using
   VICON BodyBuilder and BodyLanguage model FoxedUp or BRILLIANT.MOD
:root
   order TX TY TZ RX RY RZ
   axis XYZ
   position 0 0 0  
   orientation 0 0 0 
:bonedata
  begin
     id 1 
     name lhipjoint
     direction 0.635376 -0.686425 0.353719 
     length 2.47244 
     axis 0 0 0  XYZ
  end
  begin
     id 2 
     name lfemur
     direction 0.34202 -0.939693 0  
     length 7.25268  
     axis 0 0 20  XYZ
    dof rx ry rz
    limits (-160.0 20.0)
           (-70.0 70.0)
           (-60.0 70.0)
  end
  begin
     id 3 
     name ltibia
     direction 0.34202 -0.939693 0   
     length 7.6767   
     axis 0 0 20   XYZ
    dof rx
    limits (-10.0 170.0)
  end
  begin
     id 4 
     name lfoot
     direction 0.0803374 -0.220725 0.972022   
     length 2.22945   
     axis -90 7.62852e-016 20   XYZ
    dof rx rz
    limits (-45.0 90.0)
           (-70.0 20.0)
  end
  begin
     id 5 
     name ltoes
     direction 1.53579e-011 -4.21994e-011 1   
     length 1.11848   
     axis -90 7.62852e-016 20   XYZ
    dof rx
    limits (-90.0 20.0)
  end
  begin
     id 6 
     name rhipjoint
     direction -0.664428 -0.664335 0.342336   
     length 2.55466  
     axis 0 0 0  XYZ 
  end
  begin
     id 7 
     name rfemur
     direction -0.34202 -0.939693 0   
     length 6.83172   
     axis 0 0 -20   XYZ
    dof rx ry rz
    limits (-160.0 20.0)
           (-70.0 70.0)
           (-70.0 60.0)
  end
  begin
     id 8 
     name rtibia
     direction -0.34202 -0.939693 0   
     length 7.62692   
     axis 0 0 -20   XYZ
    dof rx
    limits (-10.0 170.0)
 end
 begin
     id 9 
     name rfoot
     direction -0.0949276 -0.260811 0.960711   
     length 2.19684  
     axis -90 -7.62852e-016 -20   XYZ
    dof rx rz
    limits (-45.0 90.0)
           (-20.0 70.0)
  end
  begin
     id 10 
     name rtoes
     direction -1.53543e-011 -4.2183e-011 1   
     length 1.09848   
     axis -90 -7.62852e-016 -20   XYZ
    dof rx
    limits (-90.0 20.0)
  end
  begin
     id 11 
     name lowerback
     direction 0.0118782 0.999815 -0.0151555   
     length 2.15772   
     axis 0 0 0   XYZ
    dof rx ry rz
    limits (-20.0 45.0)
           (-30.0 30.0)
           (-30.0 30.0)
  end
  begin
     id 12 
     name upperback
     direction 0.00130825 0.999065 0.0432113   
     length 2.14863   
     axis 0 0 0   XYZ
    dof rx ry rz
    limits (-20.0 45.0)
           (-30.0 30.0)
           (-30.0 30.0)
  end
  begin
     id 13 
     name thorax
     direction -0.00347005 0.998773 0.0494011   
     length 2.14936   
     axis 0 0 0   XYZ
    dof rx ry rz
    limits (-20.0 45.0)
           (-30.0 30.0)
           (-30.0 30.0)
  end
  begin
     id 14 
     name lowerneck
     direction -0.0262159 0.99424 0.103921   
     length 1.69373   
     axis 0 0 0   XYZ
    dof rx ry rz
    limits (-20.0 45.0)
           (-30.0 30.0)
           (-30.0 30.0)
  end
  begin
     id 15 
     name upperneck
     direction 0.0353511 0.977394 -0.20845   
     length 1.70857   
     axis 0 0 0   XYZ
    dof rx ry rz
    limits (-20.0 45.0)
           (-30.0 30.0)
           (-30.0 30.0)
  end
  begin
     id 16
     name head
     direction 0.0139214 0.996594 -0.0812836  
     length 1.72777  
     axis 0 0 0   XYZ
    dof rx ry rz
    limits (-20.0 45.0)
           (-30.0 30.0)
           (-30.0 30.0)
  end
  begin
     id 17 
     name lclavicle
     direction 0.841247 0.537205 -0.0609508  
     length 3.55371  
     axis 0 0 0   XYZ
    dof ry rz
    limits (-20.0 10.0)
           (0.0 20.0)
  end
  begin
     id 18 
     name lhumerus
     direction 1 -4.48964e-011 1.60116e-018   
     length 4.91377   
     axis -180 -30 -90   XYZ
    dof rx ry rz
    limits (-60.0 90.0)
           (-90.0 90.0)
           (-90.0 90.0)
  end
  begin
     id 19
     name lradius
     direction 1 -4.48989e-011 -8.93847e-027   
     length 3.00291   
     axis -180 -30 -90   XYZ
    dof rx
    limits (-10.0 170.0)
  end
  begin
     id 20
     name lwrist
     direction 1 -4.48932e-011 -7.31504e-027   
     length 1.50145   
     axis 5.74121e-015 90 90   XYZ
    dof ry
    limits (-180.0 0.0)
 end
  begin
     id 21 
     name lhand
     direction 1 -4.48971e-011 -1.46301e-026   
     length 0.450922   
     axis 9.33524e-015 90 90   XYZ
    dof rx rz
    limits (-90.0 90.0)
           (-45.0 45.0)
  end
  begin
     id 22 
     name lfingers
     direction 1 -4.49039e-011 -2.92602e-026   
     length 0.363545   
     axis 1.86705e-014 90 90   XYZ
    dof rx
    limits (0.0 90.0)
  end
  begin
     id 23
     name lthumb
     direction 0.707107 -6.34941e-011 0.707107   
     length 0.52198   
     axis -90 45 2.85299e-015   XYZ
    dof rx rz
    limits (-45.0 45.0)
           (-45.0 45.0)
  end
  begin
     id 24 
     name rclavicle
     direction -0.825079 0.56158 -0.0622297   
     length 3.39909  
     axis 0 0 0   XYZ 
    dof ry rz
    limits (-10.0 20.0)
           (-20.0 0.0)
  end
  begin
     id 25 
     name rhumerus
     direction -1 -4.48965e-011 1.61691e-027  
     length 4.86725   
     axis -180 30 90   XYZ
    dof rx ry rz
    limits (-90.0 60.0)
           (-90.0 90.0)
           (-90.0 90.0)
  end
  begin
     id 26 
     name rradius
     direction -1 -4.48964e-011 -2.25776e-027   
     length 3.17144   
     axis -180 30 90   XYZ
    dof rx
    limits (-10.0 170.0)
  end
  begin
     id 27 
     name rwrist
     direction -1 -4.48961e-011 -7.31504e-027   
     length 1.58572   
     axis 5.74121e-015 -90 -90   XYZ
    dof ry
    limits (-180.0 0.0)
  end
  begin
     id 28
     name rhand
     direction -1 -4.49013e-011 -1.46301e-026   
     length 0.419368   
     axis 9.33524e-015 -90 -90   XYZ
    dof rx rz
    limits (-90.0 90.0)
           (-45.0 45.0)
  end
  begin
     id 29
     name rfingers
     direction -1 -4.489e-011 -2.92602e-026   
     length 0.338105   
     axis 1.86705e-014 -90 -90   XYZ
    dof rx
    limits (0.0 90.0)
  end
  begin
     id 30
     name rthumb
     direction -0.707107 -6.35022e-011 0.707107   
     length 0.485453   
     axis -90 -45 -2.85299e-015   XYZ
    dof rx rz
    limits (-45.0 45.0)
           (-45.0 45.0)
  end
:hierarchy
  begin
    root lhipjoint rhipjoint lowerback
    lhipjoint lfemur
    lfemur ltibia
    ltibia lfoot
    lfoot ltoes
    rhipjoint rfemur
    rfemur rtibia
    rtibia rfoot
    rfoot rtoes
    lowerback upperback
    upperback thorax
    thorax lowerneck lclavicle rclavicle
    lowerneck upperneck
    upperneck head
    lclavicle lhumerus
    lhumerus lradius
    lradius lwrist
    lwrist lhand lthumb
    lhand lfingers
    rclavicle rhumerus
    rhumerus rradius
    rradius rwrist
    rwrist rhand rthumb
    rhand rfingers
  end

#!OML:ASF H:\Swim 2\Project 1\Capture day 1\Session 1\male.ASF
:FULLY-SPECIFIED
:DEGREES
243
root 2.16058 14.3444 9.21796 99.5443 -40.7227 -1.21483
lowerback -6.65691 4.14036 8.61952
upperback -7.08824 5.11783 -9.06508
thorax -2.22847 2.10774 -14.5716
lowerneck -20.3073 -4.88627 -7.33788
upperneck 20.0076 -5.65354 5.00445
head 10.0889 -2.56582 2.14859
rclavicle 5.725e-014 -6.69904e-014
rhumerus 81.0605 -21.3512 -21.4578
rradius 32.4123
rwrist -21.1907
rhand -29.7718 -8.71686
rfingers 7.12502
rthumb -3.0971 -38.6741
lclavicle 5.725e-014 -6.69904e-014
lhumerus 76.0097 30.2739 -23.9709
lradius 35.5713
lwrist 91.2492
lhand -45.8558 -22.138
lfingers 7.12502
lthumb -18.6069 6.99207
rfemur -73.9808 6.03199 11.393
rtibia 52.8726
rfoot 12.3195 1.69599
rtoes 7.10564
lfemur -78.1308 16.6853 -44.7984
ltibia 65.1201
lfoot 1.72424 11.2474
ltoes 12.5876
244
root 2.13305 14.3478 9.20867 99.5723 -40.8042 -1.27194
lowerback -6.69295 4.17119 8.6153
upperback -7.1272 5.15794 -9.05051
thorax -2.23946 2.12633 -14.5467
lowerneck -20.1125 -4.86574 -7.26272
upperneck 19.2739 -5.61947 4.93611
head 9.78504 -2.55705 2.11671
rclavicle 0 7.25564e-014
rhumerus 80.9623 -21.4647 -21.4559
rradius 32.1125
rwrist -20.4657
rhand -29.5685 -9.506
rfingers 7.12502
rthumb -2.90075 -39.466
lclavicle 0 7.25564e-014
lhumerus 75.1022 30.0691 -25.6798
lradius 35.2928
lwrist 92.3142
lhand -45.9608 -22.2549
lfingers 7.12502
lthumb -18.7079 6.86554
rfemur -74.3016 6.05255 11.5694
rtibia 53.6999
rfoot 12.258 1.96208
rtoes 7.11631
lfemur -78.4898 16.9067 -45.1975
ltibia 66.0262
lfoot 1.86334 10.9304
ltoes 12.3496
245
root 2.10526 14.3525 9.20047 99.586 -40.8973 -1.32612
lowerback -6.71228 4.20202 8.60968
upperback -7.16101 5.19921 -9.04018
thorax -2.25362 2.14562 -14.5268
lowerneck -19.9261 -4.83675 -7.17813
upperneck 18.5414 -5.57041 4.83867
head 9.48422 -2.54383 2.07608
rclavicle 4.92986e-014 -2.38542e-014
rhumerus 80.86 -21.5864 -21.478
rradius 31.8005
rwrist -19.7305
rhand -29.326 -10.3413
rfingers 7.12502
rthumb -2.66657 -40.3044
lclavicle 4.92986e-014 -2.38542e-014
lhumerus 74.184 29.8258 -27.4017
lradius 35.0152
lwrist 93.4148
lhand -46.0355 -22.383
lfingers 7.12502
lthumb -18.7798 6.73046
rfemur -74.6039 6.08035 11.7128
rtibia 54.5095
rfoot 12.2019 2.20518
rtoes 7.15074
lfemur -78.8191 17.1238 -45.5954
ltibia 66.8969
lfoot 1.97292 10.6474
ltoes 12.1216
246
root 2.07722 14.3584 9.19339 99.5895 -41.0018 -1.37802
lowerback -6.7246 4.23677 8.59077
upperback -7.19311 5.24692 -9.03027
thorax -2.26866 2.16891 -14.4987
lowerneck -19.7458 -4.81223 -7.09896
upperneck 17.8239 -5.52428 4.72774
head 9.19283 -2.53351 2.03206
rclavicle 1.90833e-014 -4.9895e-014
rhumerus 80.7349 -21.7106 -21.4977
rradius 31.4632
rwrist -18.8938
rhand -29.0878 -11.0365
rfingers 7.12502
rthumb -2.43651 -41.0023
lclavicle 1.90833e-014 -4.9895e-014
lhumerus 73.264 29.53 -29.1383
lradius 34.7374
lwrist 94.5514
lhand -46.1002 -22.5293
lfingers 7.12502
lthumb -18.8421 6.57814
rfemur -74.8915 6.11144 11.8301
rtibia 55.3018
rfoot 12.1456 2.42339
rtoes 7.20103
lfemur -79.121 17.3344 -45.9899
ltibia 67.7345
lfoot 2.04829 10.3912
ltoes 11.908
247
root 2.04929 14.365 9.1874 99.5894 -41.1181 -1.4299
lowerback -6.73303 4.27558 8.56379
upperback -7.2228 5.30087 -9.02443
thorax -2.28157 2.19608 -14.4699
lowerneck -19.6168 -4.80568 -7.03269
upperneck 17.1691 -5.50353 4.63813
head 8.93747 -2.53244 1.99411
rclavicle -8.90555e-014 6.7388e-014
rhumerus 80.6184 -21.8499 -21.5559
rradius 31.0537
rwrist -17.7977
rhand -28.6615 -11.2797
rfingers 7.12502
rthumb -2.02477 -41.2499
lclavicle -8.90555e-014 6.7388e-014
lhumerus 72.3294 29.189 -30.9221
lradius 34.4705
lwrist 95.756
lhand -46.1926 -22.6835
lfingers 7.12502
lthumb -18.9309 6.41531
rfemur -75.1689 6.14012 11.9278
rtibia 56.0772
rfoot 12.0616 2.63403
rtoes 7.24729
lfemur -79.4005 17.5376 -46.3832
ltibia 68.5416
lfoot 2.1082 10.1438
ltoes 11.6832
248
root 2.02201 14.3719 9.18237 99.6046 -41.2505 -1.48756
lowerback -6.75486 4.32261 8.5119
upperback -7.25783 5.36625 -9.02182
thorax -2.29069 2.23023 -14.4273
lowerneck -19.4883 -4.80929 -6.9621
upperneck 16.5172 -5.49718 4.53942
head 8.68579 -2.53864 1.95111
rclavicle 5.24792e-014 1.25036e-013
rhumerus 80.5117 -21.9971 -21.6713
rradius 30.5611
rwrist -16.3415
rhand -28.0138 -10.99
rfingers 7.12502
rthumb -1.39928 -40.9651
lclavicle 5.24792e-014 1.25036e-013
lhumerus 71.3928 28.789 -32.7589
lradius 34.1958
lwrist 96.9894
lhand -46.2876 -22.8518
lfingers 7.12502
lthumb -19.0223 6.23796
rfemur -75.4525 6.16066 12.0056
rtibia 56.8384
rfoot 11.9428 2.83262
rtoes 7.2947
lfemur -79.6755 17.7312 -46.7881
ltibia 69.3241
lfoot 2.15931 9.89145
ltoes 11.5031
